<svg id="Layer_1" data-name="Layer 1" xmlns="http://www.w3.org/2000/svg" width="1241.6377" height="465.31594" viewBox="0 0 1241.6377 465.31594"><defs><style>.cls-1{fill:#003268;}.cls-2{fill:#0caaef;}</style></defs><path class="cls-1" d="M1235.42989,91.23624A132.91568,132.91568,0,0,0,1160.5766,15.314Q1133.97151,4.34562,1101.54739,4.342q-32.42878,0-59.02921,10.972A136.71432,136.71432,0,0,0,996.88809,45.5066a130.03187,130.03187,0,0,0-11.79341,13.75448,127.12264,127.12264,0,0,0-8.81333-9.67534,133.37617,133.37617,0,0,0-45.53276-29.223q-26.60538-10.48491-59.0294-10.486H769.49172q-3.88611,0-6.69824.1944a17.00638,17.00638,0,0,0-5.04874,1.0689,12.81275,12.81275,0,0,0-4.17417,2.71623A19.95742,19.95742,0,0,0,749.88,19.002L671.628,168.71085q-3.69063,6.798-6.89287,14.17434-3.2031,7.3809-6.11518,15.146-2.91189-7.57311-6.11766-14.75739-3.20347-7.18171-6.89268-13.98218L566.77651,19.002a21.66674,21.66674,0,0,0-3.59316-5.14582A11.902,11.902,0,0,0,559.10644,11.14a17.26767,17.26767,0,0,0-5.14582-1.0689c-1.94125-.12815-4.14562-.1944-6.60134-.1944H503.0874v281.7447h51.45622V118.61284q0-5.43264-.38879-11.747-.39114-6.3075-.97165-13.10537l80.97076,153.39463a21.69988,21.69988,0,0,0,20.38684,12.62169h8.156q13.78422,0,20.38913-12.62169l101.279-191.6484h87.35432q19.80738,0,35.43793,6.60363A72.92458,72.92458,0,0,1,933.66144,80.9446,83.92528,83.92528,0,0,1,950.36,110.84545q5.82378,17.674,5.824,39.80637,0,22.33157-5.824,40.00076a84.89312,84.89312,0,0,1-16.69859,29.99817,71.391,71.391,0,0,1-26.50432,18.83406q-15.63292,6.51-35.43793,6.5065h-49.707V72.7679L763.37183,183.876V291.62139H871.71919q32.42544,0,59.0294-10.48609a134.11248,134.11248,0,0,0,45.53276-29.12588A125.014,125.014,0,0,0,987.023,239.9069a129.46241,129.46241,0,0,0,9.86509,11.23023,136.67593,136.67593,0,0,0,45.63009,30.19256q26.60139,10.97179,59.02921,10.972,32.42544,0,59.02921-10.972a135.63821,135.63821,0,0,0,45.53295-30.19256,134.21922,134.21922,0,0,0,29.32034-45.63256q10.38517-26.40248,10.389-57.27993A153.84781,153.84781,0,0,0,1235.42989,91.23624Zm-55.04721,96.8919a83.236,83.236,0,0,1-16.79566,29.80372,72.80941,72.80941,0,0,1-26.60164,18.7394q-15.633,6.50642-35.438,6.504-19.80339,0-35.53265-6.504a72.5561,72.5561,0,0,1-26.69871-18.7394,83.12666,83.12666,0,0,1-16.79591-29.80372q-5.8274-17.571-5.82613-39.9035,0-22.136,5.82613-39.70924A84.1853,84.1853,0,0,1,1039.316,78.61449a72.07309,72.07309,0,0,1,26.69871-18.83424q15.72541-6.50632,35.53265-6.50626t35.438,6.50626A72.32249,72.32249,0,0,1,1163.587,78.61449a84.2971,84.2971,0,0,1,16.79566,29.90091q5.82369,17.57823,5.82372,39.70924Q1186.2064,170.5562,1180.38268,188.12814Z" transform="translate(-4.18115 -4.34203)"/><path class="cls-2" d="M503.0874,307.16147h32.36183V437.29689H602.468v29.8366H503.0874Z" transform="translate(-4.18115 -4.34203)"/><path class="cls-2" d="M713.78,395.5252v71.60829H685.32106l-2.29512-13.08265C674.993,465.5272,662.36834,469.658,650.89272,469.658c-24.55751,0-42.22966-15.8365-42.22966-38.09889,0-13.312,5.96642-22.952,16.29447-28.23031,7.34559-3.6728,16.52609-5.27908,28.0017-5.27908h29.8366V395.5252c0-10.3288-7.57421-16.98406-20.42749-16.98406-10.09795,0-19.73716,4.36014-28.91766,14.68894l-22.4925-18.82046c13.77074-15.60713,32.59045-22.95123,52.78783-22.95123C694.73017,351.45839,713.78,368.44245,713.78,395.5252Zm-30.98416,25.47572H657.31937c-6.42665,0-10.78678.9182-13.54063,2.984a9.1381,9.1381,0,0,0-4.13152,8.03293c0,6.88537,5.73781,11.93434,16.296,11.93434C670.40276,443.95215,682.56572,434.08357,682.79583,421.00092Z" transform="translate(-4.18115 -4.34203)"/><path class="cls-2" d="M848.96064,410.4435c0,33.96812-16.98481,59.21447-47.05151,59.21447-10.78678,0-22.95123-3.44268-30.98417-12.16445v9.64H739.71069v-159.972H770.925v56.9201c7.11548-7.57421,19.04982-12.62318,31.44289-12.62318C828.53315,351.45839,848.96064,373.0327,848.96064,410.4435Zm-30.98565.22936c0-19.27918-7.3441-30.75479-24.32741-30.75479-18.8212,0-25.70657,14.45957-25.70657,30.75479,0,16.7547,7.34409,29.8366,26.16529,29.8366C810.63089,440.50946,817.975,430.18141,817.975,410.67286Z" transform="translate(-4.18115 -4.34203)"/><path class="cls-2" d="M299.647,144.28462c39.13477,0,64.70508,12.3169,64.70508,17.61817s-25.57031,17.61865-64.70508,17.61865H242.89355l-56.95251,75.432,74.00574,148.54846L431.80859,58.53023H178.14764l64.74591,85.75439Z" transform="translate(-4.18115 -4.34203)"/><path class="cls-2" d="M172.73145,99.38082c-.42945-1.61011-10.35419-18.88569-23.1861-40.85059H88.08447l42.59021,85.48944c24.05664.08716,50.00843.26495,50.00843.26495S173.97852,104.05806,172.73145,99.38082Z" transform="translate(-4.18115 -4.34203)"/><path class="cls-2" d="M180.68311,179.52144s-14.70051.10077-32.22821.18774L171.75629,226.481a16.1884,16.1884,0,0,0,.97516-2.05579C173.97852,219.74751,180.68311,179.52144,180.68311,179.52144Z" transform="translate(-4.18115 -4.34203)"/><path class="cls-1" d="M130.67468,144.01967,88.08447,58.53023h61.46088c-8.87256-15.18762-19.13275-32.61328-28.608-48.65772H15.09766q-10.91236,0-10.91651,6.23829.31568,2.491,3.43067,10.293l60.80566,121.716c10.66779-1.95911,25.83258-4.14716,40.38818-4.14716C115.26117,143.97261,122.86841,143.99141,130.67468,144.01967Z" transform="translate(-4.18115 -4.34203)"/><path class="cls-1" d="M148.4549,179.70918c-13.31983.06611-28.27161.12427-39.64924.12427a201.87257,201.87257,0,0,1-25.44574-1.803l53.984,108.06092C153.226,259.07051,167.90521,233.855,171.75629,226.481Z" transform="translate(-4.18115 -4.34203)"/><path class="cls-1" d="M457.07324,9.87251h-315.663l36.73736,48.65772h253.661L259.94678,403.50191,185.941,254.95345,147.33362,306.088l40.8739,81.81824q5.614,11.84911,15.28369,30.25537,18.71412,37.73877,22.769,43.35547,4.05909,5.614,13.10059,5.61425,9.98584,0,17.77881-14.03613l110.104-221.45508q30.57129-62.07421,60.19824-121.17675,29.636-59.10937,38.05274-75.48243,8.42212-16.37475,8.42187-18.87011Q473.9165,9.87056,457.07324,9.87251Z" transform="translate(-4.18115 -4.34203)"/><path d="M2817.6792,5707.8857" transform="translate(-4.18115 -4.34203)"/></svg>